# xmcd
#
# Track frame offsets:
#	150
#	11370
#	22407
#	32452
#	40647
#	57235
#	69367
#	78157
#	87907
#	98904
#	108392
#	119117
#	129685
#	139572
#	153740
#	162602
#	172732
#
# Disc length: 2413 seconds
#
# Revision: 0
# Processed by: cddbd v1.4PL0 Copyright (c) Steve Scherf et al.
# Submitted via: dBpowerAMP V4.0
#
DISCID=db096b11
DTITLE=Clark Kessinger - Legend Of
DYEAR=1900
DGENRE=Bluegrass
TTITLE0=Ragtime Annie
TTITLE1=Sally Ann Johnson
TTITLE2=Sred Bird
TTITLE3=Salt River
TTITLE4=Over The Waves
TTITLE5=Poca River Blues
TTITLE6=Chinky-Pin
TTITLE7=Flop Eared Mule
TTITLE8=Chicken In The Barnyard
TTITLE9=Turkey Knob
TTITLE10=Leather Britches
TTITLE11=Billy In The Low Ground
TTITLE12=Dance All Night
TTITLE13=Wednesday Night Waltz
TTITLE14=Sandy River
TTITLE15=Hell Among The Yearlings
TTITLE16=Sally Goodwin
EXTD=william hale
EXTT0=
EXTT1=
EXTT2=
EXTT3=
EXTT4=
EXTT5=
EXTT6=
EXTT7=
EXTT8=
EXTT9=
EXTT10=
EXTT11=
EXTT12=
EXTT13=
EXTT14=
EXTT15=
EXTT16=
PLAYORDER=
